<svg width="536" height="340" viewBox="0 0 536 340" fill="none" xmlns="http://www.w3.org/2000/svg">
<line x1="13" x2="13" y2="225" stroke="black" stroke-width="18"/>
<path d="M273.5 89.9983V232.998" stroke="black" stroke-width="18"/>
<path d="M145 90V234" stroke="black" stroke-width="18"/>
<path d="M306 91L306 331" stroke="black" stroke-width="18"/>
<path d="M429.982 95L429.982 233.553" stroke="black" stroke-width="18"/>
<path d="M142 225L273 224" stroke="black" stroke-width="18"/>
<path d="M136 99H282" stroke="black" stroke-width="18"/>
<path d="M315.556 225H410H321.111H310" stroke="black" stroke-width="18"/>
<path d="M3.99979 223.664L65.8109 224.411L121.999 224.426" stroke="black" stroke-width="18"/>
<path d="M297 99L373 99.0001" stroke="black" stroke-width="18"/>
<path d="M384 99H474" stroke="black" stroke-width="18"/>
<path d="M4.88 330V302H15.96C18.92 302 21.52 302.6 23.76 303.8C26 305 27.7333 306.653 28.96 308.76C30.2133 310.867 30.84 313.28 30.84 316C30.84 318.72 30.2133 321.133 28.96 323.24C27.7333 325.347 26 327 23.76 328.2C21.52 329.4 18.92 330 15.96 330H4.88ZM6.92 328.16H15.8C18.44 328.16 20.7333 327.64 22.68 326.6C24.6267 325.56 26.1333 324.133 27.2 322.32C28.2667 320.48 28.8 318.373 28.8 316C28.8 313.627 28.2667 311.533 27.2 309.72C26.1333 307.88 24.6267 306.44 22.68 305.4C20.7333 304.36 18.44 303.84 15.8 303.84H6.92V328.16ZM63.5269 330V302H82.2469V303.84H65.5669V328.16H82.8469V330H63.5269ZM65.3269 316.68V314.88H80.4869V316.68H65.3269ZM123.245 330.2C121.165 330.2 119.191 329.853 117.325 329.16C115.485 328.44 114.058 327.52 113.045 326.4L113.965 324.88C114.925 325.867 116.231 326.707 117.885 327.4C119.565 328.067 121.338 328.4 123.205 328.4C125.071 328.4 126.591 328.16 127.765 327.68C128.965 327.173 129.845 326.507 130.405 325.68C130.991 324.853 131.285 323.933 131.285 322.92C131.285 321.72 130.965 320.76 130.325 320.04C129.685 319.32 128.845 318.747 127.805 318.32C126.765 317.893 125.631 317.533 124.405 317.24C123.178 316.947 121.938 316.64 120.685 316.32C119.431 315.973 118.285 315.533 117.245 315C116.205 314.467 115.365 313.747 114.725 312.84C114.111 311.907 113.805 310.707 113.805 309.24C113.805 307.907 114.151 306.68 114.845 305.56C115.538 304.44 116.618 303.533 118.085 302.84C119.551 302.147 121.431 301.8 123.725 301.8C125.271 301.8 126.791 302.027 128.285 302.48C129.805 302.933 131.098 303.547 132.165 304.32L131.405 305.96C130.231 305.16 128.965 304.573 127.605 304.2C126.271 303.8 124.978 303.6 123.725 303.6C121.938 303.6 120.458 303.853 119.285 304.36C118.111 304.867 117.245 305.547 116.685 306.4C116.125 307.227 115.845 308.16 115.845 309.2C115.845 310.4 116.151 311.36 116.765 312.08C117.405 312.8 118.245 313.373 119.285 313.8C120.325 314.227 121.471 314.587 122.725 314.88C123.978 315.173 125.218 315.493 126.445 315.84C127.671 316.16 128.805 316.587 129.845 317.12C130.885 317.653 131.725 318.373 132.365 319.28C133.005 320.187 133.325 321.36 133.325 322.8C133.325 324.107 132.965 325.333 132.245 326.48C131.525 327.6 130.418 328.507 128.925 329.2C127.458 329.867 125.565 330.2 123.245 330.2ZM165.86 330V302H167.9V330H165.86ZM215.217 330.2C213.11 330.2 211.163 329.853 209.377 329.16C207.59 328.44 206.03 327.44 204.697 326.16C203.39 324.88 202.377 323.387 201.657 321.68C200.937 319.947 200.577 318.053 200.577 316C200.577 313.947 200.937 312.067 201.657 310.36C202.377 308.627 203.403 307.12 204.737 305.84C206.07 304.56 207.617 303.573 209.377 302.88C211.163 302.16 213.123 301.8 215.257 301.8C217.283 301.8 219.163 302.12 220.897 302.76C222.63 303.4 224.11 304.36 225.337 305.64L224.057 307C222.83 305.8 221.483 304.947 220.017 304.44C218.577 303.933 217.003 303.68 215.297 303.68C213.483 303.68 211.803 303.987 210.257 304.6C208.71 305.213 207.363 306.08 206.217 307.2C205.07 308.32 204.177 309.627 203.537 311.12C202.923 312.613 202.617 314.24 202.617 316C202.617 317.76 202.923 319.387 203.537 320.88C204.177 322.373 205.07 323.68 206.217 324.8C207.363 325.92 208.71 326.787 210.257 327.4C211.803 328.013 213.483 328.32 215.297 328.32C216.95 328.32 218.51 328.067 219.977 327.56C221.47 327.053 222.83 326.213 224.057 325.04L225.217 326.6C223.963 327.8 222.457 328.707 220.697 329.32C218.963 329.907 217.137 330.2 215.217 330.2ZM225.217 326.6L223.257 326.36V316.12H225.217V326.6ZM259.794 330V302H261.514L281.474 327.48H280.554V302H282.594V330H280.914L260.914 304.52H261.834V330H259.794Z" fill="black"/>
<path d="M535 1L33 1" stroke="black" stroke-width="2"/>
<path d="M451 232H535" stroke="black" stroke-width="2"/>
<path d="M535 0V233" stroke="black" stroke-width="2"/>
</svg>
