<svg width="595" height="376" viewBox="0 0 595 376" fill="none" xmlns="http://www.w3.org/2000/svg">
<path d="M228 129.846H112V7C112 5.14348 111.263 3.363 109.95 2.05025C108.637 0.737493 106.857 0 105 0C103.143 0 101.363 0.737493 100.05 2.05025C98.7375 3.363 98 5.14348 98 7V267C98 268.857 98.7375 270.637 100.05 271.95C101.363 273.263 103.143 274 105 274C106.857 274 108.637 273.263 109.95 271.95C111.263 270.637 112 268.857 112 267V179.846H221V267C221 268.857 221.737 270.637 223.05 271.95C224.363 273.263 226.143 274 228 274C229.857 274 231.637 273.263 232.95 271.95C234.263 270.637 235 268.857 235 267V137C235.006 135.127 234.275 133.328 232.965 131.989C231.656 130.651 229.872 129.881 228 129.846ZM561 0C559.143 0 557.363 0.737493 556.05 2.05025C554.738 3.363 554 5.14348 554 7V129.846H438C436.128 129.881 434.344 130.651 433.035 131.989C431.725 133.328 430.994 135.127 431 137V267C431 268.857 431.738 270.637 433.05 271.95C434.363 273.263 436.143 274 438 274C439.857 274 441.637 273.263 442.95 271.95C444.262 270.637 445 268.857 445 267V179.846H554V267C554 268.857 554.738 270.637 556.05 271.95C557.363 273.263 559.143 274 561 274C562.857 274 564.637 273.263 565.95 271.95C567.262 270.637 568 268.857 568 267V7C568 5.14348 567.262 3.363 565.95 2.05025C564.637 0.737493 562.857 0 561 0Z" fill="#E79F14"/>
<line x1="18" y1="69" x2="18" y2="285" stroke="black" stroke-width="10"/>
<line x1="154" y1="69" x2="154" y2="294" stroke="black" stroke-width="10"/>
<line x1="154" y1="69" x2="154" y2="294" stroke="black" stroke-width="10"/>
<line x1="292" y1="69" x2="292" y2="294" stroke="black" stroke-width="10"/>
<line x1="327" y1="69" x2="327" y2="294" stroke="black" stroke-width="10"/>
<line x1="499" y1="69" x2="499" y2="294" stroke="black" stroke-width="10"/>
<line x1="149" y1="289" x2="287" y2="289" stroke="black" stroke-width="10"/>
<line x1="322" y1="64" x2="417" y2="64" stroke="black" stroke-width="10"/>
<line x1="455" y1="64" x2="549" y2="64" stroke="black" stroke-width="10"/>
<line x1="333" y1="227" x2="381" y2="227" stroke="black" stroke-width="10"/>
<line x1="149" y1="64" x2="297" y2="64" stroke="black" stroke-width="10"/>
<line y1="-5" x2="107.005" y2="-5" transform="matrix(0.99996 0.00898598 -0.00971917 0.999953 13 293.039)" stroke="black" stroke-width="10"/>
<path d="M28.88 372.2C36.4 372.2 42.4267 370.173 46.96 366.12C51.5467 362.013 53.84 355.853 53.84 347.64C53.84 339.427 51.2533 332.893 46.08 328.04C40.96 323.187 34.6133 320.76 27.04 320.76C22.1867 320.76 17.9733 320.893 14.4 321.16V371.56C17.8667 371.987 22.6933 372.2 28.88 372.2ZM27.04 317.24C35.84 317.24 43.2 319.987 49.12 325.48C55.04 330.92 58 338.333 58 347.72C58 352.467 57.2267 356.68 55.68 360.36C54.1867 363.987 52.1067 366.893 49.44 369.08C43.9467 373.507 37.0933 375.72 28.88 375.72C23.4933 375.72 17.3867 375.427 10.56 374.84V317.8C16 317.427 21.4933 317.24 27.04 317.24ZM129.394 375V317.8H155.954V321.16H133.234V342.2H153.794V345.48H133.234V371.64H156.834V375H129.394ZM250.527 322.84C246.634 321.187 242.767 320.36 238.927 320.36C231.14 320.36 227.247 323.24 227.247 329C227.247 331.507 228.127 333.853 229.887 336.04C231.647 338.173 233.78 340.093 236.287 341.8C238.794 343.453 241.3 345.16 243.807 346.92C246.314 348.68 248.447 350.787 250.207 353.24C251.967 355.693 252.847 358.36 252.847 361.24C252.847 366.093 251.22 369.773 247.967 372.28C244.714 374.733 240.207 375.96 234.447 375.96C228.74 375.96 223.86 374.493 219.807 371.56L221.727 368.68C225.567 371.187 229.78 372.44 234.367 372.44C238.954 372.44 242.474 371.533 244.927 369.72C247.38 367.853 248.607 365.187 248.607 361.72C248.607 359.32 247.727 357.053 245.967 354.92C244.207 352.733 242.074 350.787 239.567 349.08C237.06 347.32 234.554 345.533 232.047 343.72C229.54 341.907 227.407 339.747 225.647 337.24C223.887 334.733 223.007 332.04 223.007 329.16C223.007 325.373 224.394 322.387 227.167 320.2C229.994 317.96 233.78 316.84 238.527 316.84C243.327 316.84 247.78 317.8 251.887 319.72L250.527 322.84ZM323.157 375V317.8H326.997V375H323.157ZM426.239 320.36C419.252 320.36 413.545 322.867 409.119 327.88C404.692 332.893 402.479 339.053 402.479 346.36C402.479 353.613 404.985 359.773 409.999 364.84C415.012 369.907 421.119 372.44 428.319 372.44C434.505 372.44 439.652 371.587 443.759 369.88V346.36H447.599V371.64C442.959 374.52 436.452 375.96 428.079 375.96C419.759 375.96 412.719 373.107 406.959 367.4C401.199 361.64 398.319 354.627 398.319 346.36C398.319 338.04 400.932 331.053 406.159 325.4C411.385 319.693 418.079 316.84 426.239 316.84C432.639 316.84 439.119 317.907 445.679 320.04L444.639 323.24C438.239 321.32 432.105 320.36 426.239 320.36ZM524.74 326.92L524.9 333.72V375H521.06V317.32H522.82L560.5 360.76C563.06 363.8 565.033 366.227 566.42 368.04C566.207 365.48 566.1 362.547 566.1 359.24V317.8H569.94V375.48H568.18L529.78 331.24C527.113 328.2 525.407 326.173 524.66 325.16L524.74 326.92Z" fill="black"/>
</svg>
