<svg width="318" height="85" viewBox="0 0 318 85" fill="none" xmlns="http://www.w3.org/2000/svg">
<path d="M3.948 80V50.6H9.408V75.38H24.78V80H3.948ZM42.3334 80.42C40.0374 80.42 37.9234 80.042 35.9914 79.286C34.0594 78.53 32.3794 77.48 30.9514 76.136C29.5234 74.764 28.4174 73.168 27.6334 71.348C26.8494 69.5 26.4574 67.484 26.4574 65.3C26.4574 63.116 26.8494 61.114 27.6334 59.294C28.4174 57.446 29.5234 55.85 30.9514 54.506C32.3794 53.134 34.0594 52.07 35.9914 51.314C37.9234 50.558 40.0234 50.18 42.2914 50.18C44.5874 50.18 46.6874 50.558 48.5914 51.314C50.5234 52.07 52.2034 53.134 53.6314 54.506C55.0594 55.85 56.1654 57.446 56.9494 59.294C57.7334 61.114 58.1254 63.116 58.1254 65.3C58.1254 67.484 57.7334 69.5 56.9494 71.348C56.1654 73.196 55.0594 74.792 53.6314 76.136C52.2034 77.48 50.5234 78.53 48.5914 79.286C46.6874 80.042 44.6014 80.42 42.3334 80.42ZM42.2914 75.632C43.7754 75.632 45.1474 75.38 46.4074 74.876C47.6674 74.372 48.7594 73.658 49.6834 72.734C50.6074 71.782 51.3214 70.69 51.8254 69.458C52.3574 68.198 52.6234 66.812 52.6234 65.3C52.6234 63.788 52.3574 62.416 51.8254 61.184C51.3214 59.924 50.6074 58.832 49.6834 57.908C48.7594 56.956 47.6674 56.228 46.4074 55.724C45.1474 55.22 43.7754 54.968 42.2914 54.968C40.8074 54.968 39.4354 55.22 38.1754 55.724C36.9434 56.228 35.8514 56.956 34.8994 57.908C33.9754 58.832 33.2474 59.924 32.7154 61.184C32.2114 62.416 31.9594 63.788 31.9594 65.3C31.9594 66.784 32.2114 68.156 32.7154 69.416C33.2474 70.676 33.9754 71.782 34.8994 72.734C35.8234 73.658 36.9154 74.372 38.1754 74.876C39.4354 75.38 40.8074 75.632 42.2914 75.632ZM63.9128 80V50.6H85.3748V55.178H69.3728V80H63.9128ZM68.9108 68.744V64.124H83.5688V68.744H68.9108ZM96.8241 80V55.22H87.0801V50.6H112.028V55.22H102.284V80H96.8241Z" fill="black"/>
<path d="M116.376 80V50.6H127.716C130.852 50.6 133.582 51.244 135.906 52.532C138.23 53.792 140.036 55.528 141.324 57.74C142.64 59.924 143.298 62.444 143.298 65.3C143.298 68.156 142.64 70.69 141.324 72.902C140.036 75.086 138.23 76.822 135.906 78.11C133.582 79.37 130.852 80 127.716 80H116.376ZM117.804 78.698H127.632C130.516 78.698 133.022 78.124 135.15 76.976C137.306 75.828 138.958 74.246 140.106 72.23C141.282 70.214 141.87 67.904 141.87 65.3C141.87 62.696 141.282 60.386 140.106 58.37C138.958 56.354 137.306 54.772 135.15 53.624C133.022 52.476 130.516 51.902 127.632 51.902H117.804V78.698ZM151.075 80V50.6H170.353V51.902H152.503V78.698H170.941V80H151.075ZM152.251 65.72V64.418H168.463V65.72H152.251ZM186.564 80.168C184.408 80.168 182.364 79.79 180.432 79.034C178.528 78.25 177.072 77.27 176.064 76.094L176.82 75.086C177.772 76.15 179.116 77.06 180.852 77.816C182.616 78.544 184.506 78.908 186.522 78.908C188.566 78.908 190.246 78.628 191.562 78.068C192.878 77.508 193.844 76.766 194.46 75.842C195.104 74.89 195.426 73.84 195.426 72.692C195.426 71.348 195.09 70.27 194.418 69.458C193.746 68.646 192.85 68.002 191.73 67.526C190.638 67.05 189.434 66.658 188.118 66.35C186.83 66.042 185.514 65.72 184.17 65.384C182.854 65.02 181.636 64.572 180.516 64.04C179.424 63.48 178.542 62.724 177.87 61.772C177.226 60.792 176.904 59.532 176.904 57.992C176.904 56.676 177.254 55.444 177.954 54.296C178.654 53.148 179.746 52.224 181.23 51.524C182.714 50.796 184.618 50.432 186.942 50.432C188.538 50.432 190.106 50.684 191.646 51.188C193.214 51.664 194.544 52.308 195.636 53.12L195.006 54.254C193.83 53.386 192.528 52.742 191.1 52.322C189.672 51.902 188.3 51.692 186.984 51.692C185.024 51.692 183.386 51.986 182.07 52.574C180.782 53.134 179.83 53.89 179.214 54.842C178.598 55.794 178.29 56.844 178.29 57.992C178.29 59.364 178.626 60.456 179.298 61.268C179.97 62.08 180.852 62.724 181.944 63.2C183.064 63.676 184.282 64.068 185.598 64.376C186.914 64.684 188.23 65.02 189.546 65.384C190.862 65.72 192.066 66.168 193.158 66.728C194.278 67.288 195.16 68.044 195.804 68.996C196.476 69.92 196.812 71.138 196.812 72.65C196.812 73.966 196.448 75.198 195.72 76.346C195.02 77.494 193.9 78.418 192.36 79.118C190.848 79.818 188.916 80.168 186.564 80.168ZM204.478 80V50.6H205.906V80H204.478ZM228.965 80.168C226.781 80.168 224.751 79.804 222.875 79.076C221.027 78.32 219.403 77.27 218.003 75.926C216.631 74.582 215.567 73.014 214.811 71.222C214.055 69.402 213.677 67.428 213.677 65.3C213.677 63.172 214.055 61.212 214.811 59.42C215.567 57.6 216.631 56.018 218.003 54.674C219.403 53.33 221.027 52.294 222.875 51.566C224.751 50.81 226.781 50.432 228.965 50.432C231.009 50.432 232.927 50.754 234.719 51.398C236.511 52.042 238.037 53.008 239.297 54.296L238.457 55.262C237.113 53.974 235.657 53.064 234.089 52.532C232.521 52 230.827 51.734 229.007 51.734C227.019 51.734 225.171 52.084 223.463 52.784C221.783 53.456 220.313 54.408 219.053 55.64C217.793 56.872 216.813 58.314 216.113 59.966C215.441 61.59 215.105 63.368 215.105 65.3C215.105 67.232 215.441 69.024 216.113 70.676C216.813 72.3 217.793 73.728 219.053 74.96C220.313 76.192 221.783 77.158 223.463 77.858C225.171 78.53 227.019 78.866 229.007 78.866C230.799 78.866 232.493 78.6 234.089 78.068C235.713 77.508 237.155 76.598 238.415 75.338L239.255 76.388C237.967 77.648 236.427 78.6 234.635 79.244C232.843 79.86 230.953 80.168 228.965 80.168ZM239.255 76.388L237.911 76.22V65.51H239.255V76.388ZM249.185 80V50.6H250.361L271.949 78.32H271.235V50.6H272.663V80H271.487L249.899 52.28H250.613V80H249.185Z" fill="black"/>
<line x1="283" y1="79" x2="318" y2="79" stroke="black" stroke-width="2"/>
<line x1="317" y1="80" x2="317" stroke="black" stroke-width="2"/>
<path d="M316 1L4 1" stroke="black" stroke-width="2"/>
<line x1="5" y1="-4.37114e-08" x2="5" y2="40" stroke="black" stroke-width="2"/>
</svg>
