<svg width="150" height="150" viewBox="0 0 150 150" fill="none" xmlns="http://www.w3.org/2000/svg">
<circle cx="75" cy="75" r="75" fill="#F8A90D"/>
<path d="M69.1062 102.456H49.2688C40.5 102.456 33.3125 95.2688 33.3125 86.5C33.3125 85.6375 32.7375 85.0625 31.875 85.0625C31.0125 85.0625 30.4375 85.6375 30.4375 86.5C30.4375 96.85 38.9188 105.331 49.2688 105.331H69.1062C69.9687 105.331 70.5437 104.756 70.5437 103.894C70.5437 103.031 69.825 102.456 69.1062 102.456ZM77.875 102.456H74.8562C73.9937 102.456 73.4187 103.031 73.4187 103.894C73.4187 104.756 73.9937 105.331 74.8562 105.331H77.875C78.7375 105.331 79.3125 104.756 79.3125 103.894C79.3125 103.031 78.7375 102.456 77.875 102.456ZM118.125 90.9562H93.975C93.1125 90.9562 92.5375 91.5312 92.5375 92.3937C92.5375 93.1125 93.1125 93.6875 93.6875 93.8312V95.2687C93.6875 96.1312 94.2625 96.7062 95.125 96.7062C95.9875 96.7062 96.5625 96.1312 96.5625 95.2687V93.8312H99.4375V95.2687C99.4375 96.1312 100.012 96.7062 100.875 96.7062C101.738 96.7062 102.312 96.1312 102.312 95.2687V93.8312H105.188V95.2687C105.188 96.1312 105.762 96.7062 106.625 96.7062C107.488 96.7062 108.062 96.1312 108.062 95.2687V93.8312H110.938V95.2687C110.938 96.1312 111.512 96.7062 112.375 96.7062C113.238 96.7062 113.812 96.1312 113.812 95.2687V93.8312H116.688V99.5812H93.975C93.1125 99.5812 92.5375 100.156 92.5375 101.019C92.5375 101.881 93.1125 102.456 93.975 102.456H116.688V103.894C116.688 104.756 117.262 105.331 118.125 105.331C118.988 105.331 119.562 104.756 119.562 103.894V92.3937C119.562 91.5312 118.988 90.9562 118.125 90.9562Z" fill="#05A8EA"/>
<path d="M96.5625 80.75V72.125C96.5625 69.6812 94.6938 67.8125 92.25 67.8125H90.8125V63.5C90.8125 53.15 82.3312 44.6687 71.9812 44.6687H49.2688C38.9188 44.6687 30.4375 53.15 30.4375 63.5V80.4625C30.4375 81.325 31.0125 81.9 31.875 81.9C32.7375 81.9 33.3125 81.325 33.3125 80.4625V76.4375H37.625C38.4875 76.4375 39.0625 75.8625 39.0625 75V65.0812C39.0625 60.9125 41.3625 57.0312 44.9563 55.0187C45.675 54.5875 45.9625 53.725 45.5312 53.0062C45.1 52.2875 44.2375 52 43.5188 52.4312C39.0625 55.0187 36.1875 59.9062 36.1875 65.0812V73.5625H33.3125V63.5C33.3125 54.7312 40.5 47.5437 49.2688 47.5437H59.1875V50.5625H50.7063C49.8438 50.5625 49.2688 51.1375 49.2688 52C49.2688 52.8625 49.8438 53.4375 50.7063 53.4375H60.625C61.4875 53.4375 62.0625 52.8625 62.0625 52V47.5437H71.9812C80.75 47.5437 87.9375 54.7312 87.9375 63.5V102.456H83.625C82.7625 102.456 82.1875 103.031 82.1875 103.894C82.1875 104.756 82.7625 105.331 83.625 105.331H89.375C90.2375 105.331 90.8125 104.756 90.8125 103.894V85.0625H92.25C94.6938 85.0625 96.5625 83.1937 96.5625 80.75ZM93.6875 80.75C93.6875 81.6125 93.1125 82.1875 92.25 82.1875H90.8125V70.6875H92.25C93.1125 70.6875 93.6875 71.2625 93.6875 72.125V80.75Z" fill="#EB5151"/>
<path d="M60.625 56.3125C50.275 56.3125 41.9375 64.65 41.9375 75C41.9375 85.35 50.275 93.6875 60.625 93.6875C61.4875 93.6875 62.0625 93.1125 62.0625 92.25C62.0625 91.3875 61.4875 90.8125 60.625 90.8125C51.8563 90.8125 44.8125 83.7687 44.8125 75C44.8125 66.2313 51.8563 59.1875 60.625 59.1875C69.3937 59.1875 76.4375 66.2313 76.4375 75C76.4375 81.7562 72.125 87.65 65.9438 89.95C65.225 90.2375 64.7938 91.1 65.0813 91.8188C65.3688 92.5375 66.2312 92.9687 66.95 92.6812C74.2812 89.95 79.3125 82.9062 79.3125 75C79.3125 64.65 70.975 56.3125 60.625 56.3125Z" fill="#EB5151"/>
<path d="M60.625 73.5625C61.4875 73.5625 62.0625 72.9875 62.0625 72.125C62.0625 71.2625 61.4875 70.6875 60.625 70.6875C58.1812 70.6875 56.3125 72.5562 56.3125 75C56.3125 77.4438 58.1812 79.3125 60.625 79.3125C63.0688 79.3125 64.9375 77.4438 64.9375 75C64.9375 74.1375 64.3625 73.5625 63.5 73.5625C62.6375 73.5625 62.0625 74.1375 62.0625 75C62.0625 75.8625 61.4875 76.4375 60.625 76.4375C59.7625 76.4375 59.1875 75.8625 59.1875 75C59.1875 74.1375 59.7625 73.5625 60.625 73.5625Z" fill="#EB5151"/>
<path d="M40.5 96.5625C41.2939 96.5625 41.9375 95.9189 41.9375 95.125C41.9375 94.3311 41.2939 93.6875 40.5 93.6875C39.7061 93.6875 39.0625 94.3311 39.0625 95.125C39.0625 95.9189 39.7061 96.5625 40.5 96.5625Z" fill="#EB5151"/>
<path d="M80.75 56.3125C81.5439 56.3125 82.1875 55.6689 82.1875 54.875C82.1875 54.0811 81.5439 53.4375 80.75 53.4375C79.9561 53.4375 79.3125 54.0811 79.3125 54.875C79.3125 55.6689 79.9561 56.3125 80.75 56.3125Z" fill="#EB5151"/>
</svg>
