<?xml version="1.0" encoding="UTF-8"?>
<svg width="80px" height="80px" viewBox="0 0 80 80" version="1.1" xmlns="http://www.w3.org/2000/svg" xmlns:xlink="http://www.w3.org/1999/xlink">
    <!-- Generator: Sketch 60 (88103) - https://sketch.com -->
    <title>Group 112</title>
    <desc>Created with Sketch.</desc>
    <g id="Page-1" stroke="none" stroke-width="1" fill="none" fill-rule="evenodd">
        <g id="HOME-ACTIV" transform="translate(-110.000000, -3425.000000)" fill="#ebc848">
            <g id="FORMA" transform="translate(100.000000, 3299.000000)">
                <g id="Group-110" transform="translate(0.000000, 116.000000)">
                    <g id="Group-116">
                        <g id="Group-97">
                            <g id="Group-112" transform="translate(10.000000, 10.000000)">
                                <path d="M40,20.8190524 L49.4991179,12.9032258 L61.9354839,12.9032258 L61.9354839,-1.50990331e-14 L30.9677419,-1.50990331e-14 L30.9677419,12.9032258 L40,12.9032258 L40,20.8190524 Z M33.5483871,10.3225806 L33.5483871,2.58064516 L59.3548387,2.58064516 L59.3548387,10.3225806 L48.5653982,10.3225806 L42.5806452,15.3099798 L42.5806452,10.3225806 L33.5483871,10.3225806 Z" id="Shape" fill-rule="nonzero"></path>
                                <polygon id="Path" points="36.1290323 5.16129032 38.7096774 5.16129032 38.7096774 7.74193548 36.1290323 7.74193548"></polygon>
                                <polygon id="Path" points="41.2903226 5.16129032 51.6129032 5.16129032 51.6129032 7.74193548 41.2903226 7.74193548"></polygon>
                                <polygon id="Path" points="54.1935484 5.16129032 56.7741935 5.16129032 56.7741935 7.74193548 54.1935484 7.74193548"></polygon>
                                <path d="M65.6835937,77.4193548 L64.6402469,66.9739163 C68.9484627,66.2928427 72.2580645,62.562374 72.2580645,58.0645161 L72.2580645,41.2903226 L67.0967742,41.2903226 L67.0967742,39.5073084 C67.0967742,37.7532761 66.1328126,36.1781755 64.5829132,35.3704637 C66.1239919,33.9547631 67.0967742,31.9304435 67.0967742,29.6774194 L67.0967742,27.0967742 C67.0967742,22.826991 63.6246219,19.3548387 59.3548387,19.3548387 C55.0850555,19.3548387 51.6129032,22.826991 51.6129032,27.0967742 L51.6129032,29.6774194 C51.6129032,33.0178932 53.7430695,35.8618952 56.7137097,36.9455645 L49.7883065,43.8709677 L42.5522934,43.8709677 C42.4080142,41.72001 40.9305695,39.84501 38.8375756,39.2464718 L33.5483871,37.7368952 L33.5483871,35.4322077 C35.1278982,34.0139869 36.1290323,31.9638356 36.1290323,29.6774194 L36.1290323,27.0967742 C36.1290323,22.826991 32.65688,19.3548387 28.3870968,19.3548387 C24.1173135,19.3548387 20.6451613,22.826991 20.6451613,27.0967742 L20.6451613,29.6774194 C20.6451613,31.9625756 21.6462953,34.0127268 23.2258065,35.4322077 L23.2258065,37.7381552 L17.9366179,39.2477319 C15.7327369,39.8758821 14.1935484,41.9172127 14.1935484,44.2105595 L14.1935484,49.0322581 L9.03225806,49.0322581 L9.03225806,56.7741935 L11.6129032,56.7741935 L11.6129032,77.4193548 L0,77.4193548 L0,80 L80,80 L80,77.4193548 L65.6835937,77.4193548 Z M54.1935484,56.7741935 L54.1935484,50.8568548 L63.3366935,41.7137097 C63.9976058,41.0527974 64.390751,40.1650706 64.4789566,39.2389113 C64.4902974,39.3290071 64.516129,39.4140626 64.516129,39.5073084 L64.516129,55.483871 C64.516129,57.6178176 62.7791079,59.3548387 60.6451613,59.3548387 L50.3225806,59.3548387 L50.3225806,56.7741935 L54.1935484,56.7741935 Z M50.3225806,67.0967742 L56.8970515,67.0967742 L57.9290574,77.4193548 L50.3225806,77.4193548 L50.3225806,67.0967742 Z M59.4902974,67.0967742 L62.0583418,67.0967742 L63.0903477,77.4193548 L60.5223034,77.4193548 L59.4902974,67.0967742 Z M67.0967742,55.483871 L67.0967742,43.8709677 L69.6774194,43.8709677 L69.6774194,58.0645161 C69.6774194,61.6217239 66.7830142,64.516129 63.2258065,64.516129 L50.3225806,64.516129 L50.3225806,61.9354839 L60.6451613,61.9354839 C64.202369,61.9354839 67.0967742,59.0410787 67.0967742,55.483871 Z M54.1935484,29.6774194 L54.1935484,27.0967742 C54.1935484,24.2502519 56.5083165,21.9354839 59.3548387,21.9354839 C62.201361,21.9354839 64.516129,24.2502519 64.516129,27.0967742 L64.516129,29.6774194 C64.516129,32.5239416 62.201361,34.8387097 59.3548387,34.8387097 C56.5083165,34.8387097 54.1935484,32.5239416 54.1935484,29.6774194 Z M50.8568548,46.4516129 L59.4657258,37.8427419 C59.7353831,37.5730847 60.1083669,37.4193548 60.4889113,37.4193548 C61.2865423,37.4193548 61.9354839,38.0682965 61.9354839,38.8659274 C61.9354839,39.2464718 61.781754,39.6194556 61.5120968,39.8891129 L52.3689516,49.0322581 L38.7096774,49.0322581 C37.9977319,49.0322581 37.4193548,48.453881 37.4193548,47.7419355 C37.4193548,47.02999 37.9977319,46.4516129 38.7096774,46.4516129 L50.8568548,46.4516129 Z M23.2258065,27.0967742 C23.2258065,24.2502519 25.5405745,21.9354839 28.3870968,21.9354839 C31.233619,21.9354839 33.5483871,24.2502519 33.5483871,27.0967742 L33.5483871,29.6774194 C33.5483871,32.5239416 31.233619,34.8387097 28.3870968,34.8387097 C25.5405745,34.8387097 23.2258065,32.5239416 23.2258065,29.6774194 L23.2258065,27.0967742 Z M28.3870968,37.4193548 C29.2930948,37.4193548 30.1587702,37.2542842 30.9677419,36.967616 L30.9677419,38.3537047 C30.6476815,38.8476563 29.7586945,40 28.3870968,40 C27.015499,40 26.1265121,38.8476563 25.8064516,38.3537047 L25.8064516,36.967616 C26.6154234,37.2542842 27.4810987,37.4193548 28.3870968,37.4193548 Z M16.7741935,44.2105595 C16.7741935,43.0632561 17.5447329,42.0438508 18.6454132,41.7288306 L23.9610635,40.2104335 C24.7095515,41.1857358 26.1662047,42.5806452 28.3870968,42.5806452 C30.6079889,42.5806452 32.0646421,41.1857358 32.81313,40.2091734 L38.1287803,41.7275706 C39.1173135,42.0104587 39.8065776,42.8698337 39.9445565,43.8697077 L38.7096774,43.8697077 C36.5757308,43.8697077 34.8387097,45.6067289 34.8387097,47.7406755 C34.8387097,48.1949345 34.9313256,48.6258821 35.0762348,49.0309981 L16.7741935,49.0309981 L16.7741935,44.2105595 Z M11.6129032,51.6129032 L51.6129032,51.6129032 L51.6129032,54.1935484 L11.6129032,54.1935484 L11.6129032,51.6129032 Z M14.1935484,61.9354839 L18.0645161,61.9354839 L18.0645161,59.3548387 L14.1935484,59.3548387 L14.1935484,56.7741935 L47.7419355,56.7741935 L47.7419355,59.3548387 L20.6451613,59.3548387 L20.6451613,61.9354839 L47.7419355,61.9354839 L47.7419355,77.4193548 L44.6685987,77.4193548 L42.0879535,72.2580645 L19.8475303,72.2580645 L17.2668852,77.4193548 L14.1935484,77.4193548 L14.1935484,61.9354839 Z M41.7830142,77.4193548 L20.1524697,77.4193548 L21.4427923,74.8387097 L40.4926916,74.8387097 L41.7830142,77.4193548 Z" id="Shape" fill-rule="nonzero"></path>
                            </g>
                        </g>
                    </g>
                </g>
            </g>
        </g>
    </g>
</svg>