<?xml version="1.0" encoding="UTF-8"?>
<svg width="76px" height="76px" viewBox="0 0 76 76" version="1.1" xmlns="http://www.w3.org/2000/svg" xmlns:xlink="http://www.w3.org/1999/xlink">
    <!-- Generator: Sketch 60 (88103) - https://sketch.com -->
    <title>project</title>
    <desc>Created with Sketch.</desc>
    <g id="Page-1" stroke="none" stroke-width="1" fill="none" fill-rule="evenodd">
        <g id="HOME-ACTIV" transform="translate(-500.000000, -3427.000000)" fill="#ebc848">
            <g id="FORMA" transform="translate(100.000000, 3299.000000)">
                <g id="Group-110" transform="translate(0.000000, 116.000000)">
                    <g id="Group-117" transform="translate(388.000000, 0.000000)">
                        <g id="Group-98">
                            <g id="project" transform="translate(12.000000, 12.000000)">
                                <path d="M24.516129,55.1612903 L44.1290323,55.1612903 C44.8060265,55.1612903 45.3548387,54.6124781 45.3548387,53.9354839 L45.3548387,38 C45.3548387,37.6141685 45.1731814,37.2508538 44.8645161,37.0193548 L35.0580645,29.6645161 C34.6222222,29.3376344 34.0229391,29.3376344 33.5870968,29.6645161 L23.7806452,37.0193548 C23.4719799,37.2508538 23.2903226,37.6141685 23.2903226,38 L23.2903226,53.9354839 C23.2903226,54.6124781 23.8391348,55.1612903 24.516129,55.1612903 Z M31.8709677,52.7096774 L31.8709677,45.3548387 L36.7741935,45.3548387 L36.7741935,52.7096774 L31.8709677,52.7096774 Z M25.7419355,38.6129032 L34.3225806,32.1774194 L42.9032258,38.6129032 L42.9032258,52.7096774 L39.2258065,52.7096774 L39.2258065,44.1290323 C39.2258065,43.452038 38.6769942,42.9032258 38,42.9032258 L30.6451613,42.9032258 C29.9681671,42.9032258 29.4193548,43.452038 29.4193548,44.1290323 L29.4193548,52.7096774 L25.7419355,52.7096774 L25.7419355,38.6129032 Z" id="Shape" fill-rule="nonzero"></path>
                                <path d="M55.1612903,19.6129032 L13.483871,19.6129032 C12.8068768,19.6129032 12.2580645,20.1617155 12.2580645,20.8387097 L12.2580645,62.516129 C12.2580645,63.1931232 12.8068768,63.7419355 13.483871,63.7419355 L55.1612903,63.7419355 C55.8382845,63.7419355 56.3870968,63.1931232 56.3870968,62.516129 L56.3870968,20.8387097 C56.3870968,20.1617155 55.8382845,19.6129032 55.1612903,19.6129032 Z M53.9354839,61.2903226 L14.7096774,61.2903226 L14.7096774,22.0645161 L53.9354839,22.0645161 L53.9354839,61.2903226 Z" id="Shape" fill-rule="nonzero"></path>
                                <path d="M75.9056129,0.757548387 C75.7812047,0.457327841 75.5426722,0.218795311 75.2424516,0.0943870968 C75.0939725,0.032826603 74.9349267,0.000767644117 74.7741935,0 L1.22580645,0 C0.548812242,0 0,0.548812242 0,1.22580645 L0,13.483871 C0,14.1608652 0.548812242,14.7096774 1.22580645,14.7096774 L61.2903226,14.7096774 L61.2903226,74.7741935 C61.2903226,75.4511878 61.8391348,76 62.516129,76 L74.7741935,76 C75.4511878,76 76,75.4511878 76,74.7741935 L76,1.22580645 C76,1.06501191 75.9677559,0.905849303 75.9056129,0.757548387 Z M63.7419355,73.5483871 L63.7419355,69.8709677 L68.6451613,69.8709677 C69.3221555,69.8709677 69.8709677,69.3221555 69.8709677,68.6451613 C69.8709677,67.9681671 69.3221555,67.4193548 68.6451613,67.4193548 L63.7419355,67.4193548 L63.7419355,63.7419355 L66.1935484,63.7419355 C66.8705426,63.7419355 67.4193548,63.1931232 67.4193548,62.516129 C67.4193548,61.8391348 66.8705426,61.2903226 66.1935484,61.2903226 L63.7419355,61.2903226 L63.7419355,57.6129032 L68.6451613,57.6129032 C69.3221555,57.6129032 69.8709677,57.064091 69.8709677,56.3870968 C69.8709677,55.7101026 69.3221555,55.1612903 68.6451613,55.1612903 L63.7419355,55.1612903 L63.7419355,51.483871 L66.1935484,51.483871 C66.8705426,51.483871 67.4193548,50.9350587 67.4193548,50.2580645 C67.4193548,49.5810703 66.8705426,49.0322581 66.1935484,49.0322581 L63.7419355,49.0322581 L63.7419355,45.3548387 L68.6451613,45.3548387 C69.3221555,45.3548387 69.8709677,44.8060265 69.8709677,44.1290323 C69.8709677,43.452038 69.3221555,42.9032258 68.6451613,42.9032258 L63.7419355,42.9032258 L63.7419355,39.2258065 L66.1935484,39.2258065 C66.8705426,39.2258065 67.4193548,38.6769942 67.4193548,38 C67.4193548,37.3230058 66.8705426,36.7741935 66.1935484,36.7741935 L63.7419355,36.7741935 L63.7419355,33.0967742 L68.6451613,33.0967742 C69.3221555,33.0967742 69.8709677,32.547962 69.8709677,31.8709677 C69.8709677,31.1939735 69.3221555,30.6451613 68.6451613,30.6451613 L63.7419355,30.6451613 L63.7419355,26.9677419 L66.1935484,26.9677419 C66.8705426,26.9677419 67.4193548,26.4189297 67.4193548,25.7419355 C67.4193548,25.0649413 66.8705426,24.516129 66.1935484,24.516129 L63.7419355,24.516129 L63.7419355,20.8387097 L68.6451613,20.8387097 C69.3221555,20.8387097 69.8709677,20.2898974 69.8709677,19.6129032 C69.8709677,18.935909 69.3221555,18.3870968 68.6451613,18.3870968 L63.7419355,18.3870968 L63.7419355,13.9913548 L67.0601935,10.6730968 C67.5247401,10.1921162 67.5180965,9.4275735 67.0452615,8.95473852 C66.5724265,8.48190354 65.8078838,8.47525987 65.3269032,8.93980645 L62.0086452,12.2580645 L57.6129032,12.2580645 L57.6129032,7.35483871 C57.6129032,6.6778445 57.064091,6.12903226 56.3870968,6.12903226 C55.7101026,6.12903226 55.1612903,6.6778445 55.1612903,7.35483871 L55.1612903,12.2580645 L51.483871,12.2580645 L51.483871,9.80645161 C51.483871,9.1294574 50.9350587,8.58064516 50.2580645,8.58064516 C49.5810703,8.58064516 49.0322581,9.1294574 49.0322581,9.80645161 L49.0322581,12.2580645 L45.3548387,12.2580645 L45.3548387,7.35483871 C45.3548387,6.6778445 44.8060265,6.12903226 44.1290323,6.12903226 C43.452038,6.12903226 42.9032258,6.6778445 42.9032258,7.35483871 L42.9032258,12.2580645 L39.2258065,12.2580645 L39.2258065,9.80645161 C39.2258065,9.1294574 38.6769942,8.58064516 38,8.58064516 C37.3230058,8.58064516 36.7741935,9.1294574 36.7741935,9.80645161 L36.7741935,12.2580645 L33.0967742,12.2580645 L33.0967742,7.35483871 C33.0967742,6.6778445 32.547962,6.12903226 31.8709677,6.12903226 C31.1939735,6.12903226 30.6451613,6.6778445 30.6451613,7.35483871 L30.6451613,12.2580645 L26.9677419,12.2580645 L26.9677419,9.80645161 C26.9677419,9.1294574 26.4189297,8.58064516 25.7419355,8.58064516 C25.0649413,8.58064516 24.516129,9.1294574 24.516129,9.80645161 L24.516129,12.2580645 L20.8387097,12.2580645 L20.8387097,7.35483871 C20.8387097,6.6778445 20.2898974,6.12903226 19.6129032,6.12903226 C18.935909,6.12903226 18.3870968,6.6778445 18.3870968,7.35483871 L18.3870968,12.2580645 L14.7096774,12.2580645 L14.7096774,9.80645161 C14.7096774,9.1294574 14.1608652,8.58064516 13.483871,8.58064516 C12.8068768,8.58064516 12.2580645,9.1294574 12.2580645,9.80645161 L12.2580645,12.2580645 L8.58064516,12.2580645 L8.58064516,7.35483871 C8.58064516,6.6778445 8.03183292,6.12903226 7.35483871,6.12903226 C6.6778445,6.12903226 6.12903226,6.6778445 6.12903226,7.35483871 L6.12903226,12.2580645 L2.4516129,12.2580645 L2.4516129,2.4516129 L71.8150968,2.4516129 L69.0043226,5.2623871 C68.6856661,5.5701558 68.5578684,6.02591484 68.6700486,6.45449285 C68.7822289,6.88307086 69.1169291,7.21777114 69.5455072,7.32995135 C69.9740852,7.44213157 70.4298442,7.31433388 70.7376129,6.99567742 L73.5483871,4.18490323 L73.5483871,73.5483871 L63.7419355,73.5483871 Z" id="Shape" fill-rule="nonzero"></path>
                                <path d="M71.0967742,24.516129 L69.8709677,24.516129 C69.1939735,24.516129 68.6451613,25.0649413 68.6451613,25.7419355 C68.6451613,26.4189297 69.1939735,26.9677419 69.8709677,26.9677419 L71.0967742,26.9677419 C71.7737684,26.9677419 72.3225806,26.4189297 72.3225806,25.7419355 C72.3225806,25.0649413 71.7737684,24.516129 71.0967742,24.516129 Z" id="Path"></path>
                            </g>
                        </g>
                    </g>
                </g>
            </g>
        </g>
    </g>
</svg>