<?xml version="1.0" encoding="UTF-8"?>
<svg width="76px" height="76px" viewBox="0 0 76 76" version="1.1" xmlns="http://www.w3.org/2000/svg" xmlns:xlink="http://www.w3.org/1999/xlink">
    <!-- Generator: Sketch 60 (88103) - https://sketch.com -->
    <title>sketch</title>
    <desc>Created with Sketch.</desc>
    <g id="Page-1" stroke="none" stroke-width="1" fill="none" fill-rule="evenodd">
        <g id="HOME-ACTIV" transform="translate(-112.000000, -3659.000000)" fill="#ebc848" fill-rule="nonzero">
            <g id="FORMA" transform="translate(100.000000, 3299.000000)">
                <g id="Group-110" transform="translate(0.000000, 116.000000)">
                    <g id="Group-108" transform="translate(0.000000, 232.000000)">
                        <g id="Group-104">
                            <g id="sketch" transform="translate(12.000000, 12.000000)">
                                <path d="M67.2472344,53.6337344 C66.8304219,53.4609531 66.3506719,53.5563984 66.0315313,53.8753906 L53.8409531,66.0659688 C53.5219609,66.3851094 53.4265156,66.8648594 53.5992969,67.2816719 C53.7717813,67.6986328 54.1787969,67.9702734 54.6298984,67.9702734 L66.8204766,67.9702734 C67.4366406,67.9702734 67.9359844,67.4709297 67.9359844,66.8547656 L67.9359844,54.6641875 C67.9358359,54.2130859 67.6640469,53.8063672 67.2472344,53.6337344 Z M57.3225547,65.7394063 L65.7046719,57.3572891 L65.7046719,65.7394063 L57.3225547,65.7394063 Z" id="Shape"></path>
                                <path d="M75.3113984,35.7536953 C74.8945859,35.5809141 74.4148359,35.6763594 74.0956953,35.9953516 L70.7548125,39.3362344 L70.7548125,16.6206953 C70.7548125,16.0045312 70.2553203,15.5051875 69.6393047,15.5051875 L61.068375,15.5051875 L64.179625,12.3939375 C64.1800703,12.3934922 64.1805156,12.3928984 64.1809609,12.3924531 L67.1788047,9.39460937 C67.8210938,8.75232031 68.1748203,7.89791406 68.1748203,6.98947656 C68.1748203,6.08103906 67.8210938,5.22692969 67.1788047,4.58434375 L63.7121953,1.11773437 C63.0699063,0.475445312 62.2155,0.12171875 61.3070625,0.12171875 C60.398625,0.12171875 59.5443672,0.475445312 58.9019297,1.11773437 L55.9026016,4.1170625 L52.2783516,7.7413125 L44.514625,15.5050391 L9.88890625,15.5050391 L9.88890625,4.46945312 C9.88890625,3.85328906 9.38941406,3.35394531 8.77339844,3.35394531 C3.93582031,3.35424219 0,7.28976562 0,12.1276406 L0,59.5068125 C0,59.5891953 0.0095,59.6693516 0.026421875,59.7465391 C0.1805,61.7992812 1.06860156,63.7065547 2.55282813,65.1544141 C4.13932812,66.7017266 6.23363281,67.5539063 8.45010156,67.5539063 L42.5369922,67.5539063 L36.1172187,73.9736797 C35.7982266,74.2928203 35.7027813,74.7724219 35.8754141,75.1893828 C36.0480469,75.6061953 36.4549141,75.8779844 36.9060156,75.8779844 L74.8844922,75.8779844 C75.5005078,75.8779844 76,75.3786406 76,74.7624766 L76,36.7842969 C76,36.3331953 75.7280625,35.9263281 75.3113984,35.7536953 Z M60.4798203,2.69547656 C60.9358203,2.23917969 61.67875,2.23917969 62.13475,2.69547656 L65.6015078,6.16223438 C66.0578047,6.61838281 66.0578047,7.36101563 65.6015078,7.8173125 L63.391125,10.0278438 L58.2691406,4.90600781 L60.4798203,2.69547656 Z M56.6915469,6.48360156 L61.8133828,11.6052891 L59.7665781,13.6520937 L54.6450391,8.53040625 L56.6915469,6.48360156 Z M73.7692813,49.3186562 L71.7111953,49.3186562 C71.0950313,49.3186562 70.5956875,49.818 70.5956875,50.4341641 C70.5956875,51.0503281 71.0950313,51.5496719 71.7111953,51.5496719 L73.7692813,51.5496719 L73.7692813,54.9111875 L71.7111953,54.9111875 C71.0950313,54.9111875 70.5956875,55.4105312 70.5956875,56.0266953 C70.5956875,56.6428594 71.0950313,57.1422031 71.7111953,57.1422031 L73.7692813,57.1422031 L73.7692813,60.5035703 L71.7111953,60.5035703 C71.0950313,60.5035703 70.5956875,61.0029141 70.5956875,61.6190781 C70.5956875,62.2352422 71.0950313,62.7345859 71.7111953,62.7345859 L73.7692813,62.7345859 L73.7692813,66.0961016 L71.7111953,66.0961016 C71.0950313,66.0961016 70.5956875,66.5955937 70.5956875,67.2116094 C70.5956875,67.8277734 71.0950313,68.3271172 71.7111953,68.3271172 L73.7692813,68.3271172 L73.7692813,73.6474141 L39.5989688,73.6474141 L50.8665625,62.3799687 C51.3022266,61.9441562 51.3022266,61.2380391 50.8665625,60.802375 C50.8165391,60.7523516 50.7628047,60.7090078 50.7065469,60.6704141 C50.2722188,60.3729453 49.6746094,60.4167344 49.2888203,60.802375 L44.7680078,65.3231875 L8.45025,65.3231875 C5.0670625,65.3231875 2.34353125,62.6818906 2.23635938,59.3047891 C2.24274219,59.0928203 2.25921875,58.8826328 2.28564063,58.6748203 C2.28578906,58.6736328 2.2859375,58.6724453 2.28608594,58.6712578 C2.29855469,58.5725469 2.31354688,58.4742812 2.33061719,58.3766094 C2.33254688,58.3654766 2.334625,58.3543437 2.33655469,58.3432109 C2.35214063,58.2560781 2.36965625,58.1693906 2.38880469,58.083 C2.39414844,58.0589531 2.39978906,58.0349062 2.40542969,58.0110078 C2.42235156,57.9379766 2.44060938,57.8653906 2.46020313,57.7931016 C2.47089063,57.7539141 2.48202344,57.7151719 2.49345313,57.6761328 C2.50978125,57.6194297 2.52670313,57.562875 2.54466406,57.5069141 C2.562625,57.4509531 2.58177344,57.3955859 2.60121875,57.3402187 C2.61472656,57.3014766 2.62808594,57.2627344 2.64263281,57.2242891 C2.66979688,57.1512578 2.69859375,57.0789687 2.72828125,57.0072734 C2.73674219,56.9866406 2.74505469,56.9657109 2.7538125,56.9450781 C2.79196094,56.8560156 2.83159375,56.7679922 2.87345313,56.6810078 C2.87523438,56.6772969 2.87686719,56.6735859 2.87864844,56.669875 C3.75116406,54.8642812 5.42925,53.5181016 7.44310156,53.1003984 C7.44874219,53.0992109 7.45438281,53.097875 7.46002344,53.0966875 C7.55235156,53.0778359 7.64557031,53.0616562 7.73938281,53.0466641 C7.75496875,53.0441406 7.77055469,53.0410234 7.7864375,53.0386484 C7.87119531,53.0257344 7.95684375,53.0156406 8.04249219,53.0059922 C8.06653906,53.0033203 8.0904375,52.9996094 8.11463281,52.9972344 C8.1973125,52.9889219 8.28073438,52.9834297 8.36415625,52.9782344 C8.39057813,52.9766016 8.417,52.9737812 8.44342188,52.9724453 C8.55267188,52.9669531 8.6628125,52.9641328 8.77339844,52.9641328 C9.38941406,52.9641328 9.88890625,52.4647891 9.88890625,51.848625 L9.88890625,43.7604141 C9.88890625,43.14425 9.38941406,42.6449062 8.77339844,42.6449062 C8.15738281,42.6449062 7.65789063,43.14425 7.65789063,43.7604141 L7.65789063,50.8033281 C5.77421875,51.0415703 4.02577344,51.8817266 2.64708594,53.2280547 C2.5020625,53.3696641 2.36460938,53.5169141 2.23071875,53.6665391 L2.23071875,12.1276406 C2.23071875,8.90046094 4.57989063,6.21121875 7.65774219,5.68010938 L7.65774219,16.6206953 L7.65774219,39.2985312 L7.65774219,39.2986797 C7.65774219,39.9146953 8.15723438,40.4141875 8.77325,40.4141875 C9.38926563,40.4141875 9.88875781,39.9146953 9.88875781,39.2986797 L9.88875781,39.2985312 L9.88875781,17.7362031 L42.2837578,17.7362031 L36.1170703,23.9028906 C35.6814063,24.3387031 35.6814063,25.0448203 36.1170703,25.4804844 C36.5527344,25.916 37.259,25.916 37.6945156,25.4804844 L45.7655078,17.4094922 C45.7658047,17.4091953 45.7659531,17.4088984 45.76625,17.40875 L53.0671484,10.1078516 L58.1886875,15.2296875 L57.5878125,15.8305625 C57.5873672,15.8310078 57.5867734,15.8314531 57.5863281,15.8318984 L35.0938906,38.3246328 L29.9722031,33.2029453 L34.4057344,28.7694141 C34.8413984,28.3336016 34.8413984,27.6274844 34.4057344,27.1918203 C33.9700703,26.7563047 33.2638047,26.7563047 32.8282891,27.1918203 L27.6058125,32.4141484 C27.5779063,32.4420547 27.5517813,32.4715937 27.5272891,32.501875 C27.519125,32.5119688 27.5118516,32.5228047 27.5041328,32.5333438 C27.4883984,32.5542734 27.4729609,32.5753516 27.4585625,32.5973203 C27.4503984,32.6100859 27.4429766,32.6231484 27.4352578,32.6363594 C27.4229375,32.6571406 27.4110625,32.6782187 27.4002266,32.6997422 C27.3931016,32.7136953 27.3867188,32.7277969 27.3801875,32.7423438 C27.3702422,32.7641641 27.3610391,32.7864297 27.3525781,32.8086953 C27.3496094,32.8165625 27.34575,32.8239844 27.3429297,32.8318516 L25.1696563,38.9882969 L23.6879531,43.1859609 C23.6683594,43.2417734 23.6542578,43.2984766 23.6437188,43.355625 L19.9339688,43.355625 C19.3179531,43.355625 18.8184609,43.8549687 18.8184609,44.4711328 C18.8184609,45.0872969 19.3179531,45.5866406 19.9339688,45.5866406 L50.8258906,45.5866406 C51.4420547,45.5866406 51.9413984,45.0872969 51.9413984,44.4711328 C51.9413984,43.8549687 51.4420547,43.355625 50.8258906,43.355625 L28.6622422,43.355625 L35.4651328,40.9542031 C35.4707734,40.952125 35.4761172,40.9493047 35.4817578,40.9472266 C35.5081797,40.9374297 35.5341563,40.9264453 35.5598359,40.9147187 C35.5700781,40.9099687 35.5803203,40.9055156 35.5902656,40.9006172 C35.6169844,40.8872578 35.6432578,40.8725625 35.6690859,40.8568281 C35.6773984,40.8517812 35.6860078,40.8471797 35.6941719,40.8419844 C35.7210391,40.8247656 35.7471641,40.8059141 35.7728438,40.7860234 C35.7792266,40.781125 35.7859063,40.7768203 35.7921406,40.7717734 C35.8231641,40.7468359 35.8535938,40.7199687 35.8823906,40.6911719 L58.8373594,17.7363516 L68.5236484,17.7363516 L68.5236484,41.5673984 L52.5672109,57.5239844 C52.1315469,57.9597969 52.1315469,58.6659141 52.5672109,59.1015781 C52.594375,59.1287422 52.6227266,59.1542734 52.6519688,59.1781719 C52.8565156,59.3448672 53.1063359,59.4282891 53.3560078,59.4282891 C53.6056797,59.4282891 53.8556484,59.3448672 54.0600469,59.1781719 C54.0892891,59.1544219 54.1176406,59.1287422 54.1448047,59.1015781 C54.14525,59.1011328 54.1448047,59.1015781 54.14525,59.1011328 L73.7692813,39.4769531 L73.7692813,49.3186562 Z M33.0536172,39.43925 L29.8583516,40.5672266 L27.7294609,38.4383359 L28.8574375,35.2430703 L33.0536172,39.43925 Z" id="Shape"></path>
                            </g>
                        </g>
                    </g>
                </g>
            </g>
        </g>
    </g>
</svg>